<?xml version="1.0" encoding="UTF-8"?>
<svg id="Layer_1" data-name="Layer 1" xmlns="http://www.w3.org/2000/svg" viewBox="0 0 1220.94 352.76">
  <defs>
    <style>
      .cls-1 {
        fill: #e20028;
      }
    </style>
  </defs>
  <g>
    <path class="cls-1" d="m458.11,274.2c-14.46,14.89-35.36,22.33-62.71,22.33s-48.26-7.44-62.71-22.33c-19.39-18.26-29.08-44.58-29.08-78.94s9.69-61.37,29.08-78.94c14.46-14.89,35.36-22.33,62.71-22.33s48.26,7.45,62.71,22.33c19.3,17.57,28.96,43.89,28.96,78.94s-9.65,60.68-28.96,78.94Zm-24.99-29.08c9.3-11.69,13.96-28.31,13.96-49.86s-4.65-38.06-13.96-49.79c-9.31-11.73-21.88-17.59-37.72-17.59s-28.48,5.84-37.91,17.53c-9.44,11.69-14.15,28.31-14.15,49.86s4.72,38.17,14.15,49.86c9.43,11.69,22.07,17.53,37.91,17.53s28.41-5.84,37.72-17.53Z"/>
    <path class="cls-1" d="m516.93,99.82h41.92l75.97,133.45V99.82h37.26v191.39h-39.98l-77.91-135.8v135.8h-37.26V99.82Z"/>
    <path class="cls-1" d="m851.14,133.71h-101.28v40.64h92.97v33.24h-92.97v49.21h105.95v34.41h-145.04V99.82h140.36v33.89Z"/>
  </g>
  <path class="cls-1" d="m864.23,182.15h71.36s9.99,0,9.99,0h8.51c1.62,0,3.03-1.1,3.44-2.66l11-42.62c2.89-8.2,11.79-7.42,14.88,0l11.33,40.92c.35,1.27,1.51,2.15,2.82,2.15h6.64c1.54,0,2.82-1.2,2.92-2.74l8.69-136.18c.19-5.52,1.66-10.05,6.76-11.82,6.43-1.2,9.48,1.7,10.77,6.76l16.4,178.12,2.98-24.07c.5-4.93,3.17-7.65,8.28-7.85h23.82c3.37,0,6.48-1.82,8.12-4.76l19.01-33.98c4.27-7.49,8.76-8.41,13.51-1.69l21.62,35.12c1.69,2.75,4.69,4.43,7.92,4.43h56.31c4.15.4,9.63.18,9.61,8.8-.25,7.74-2.43,9.18-7.78,9.36h-70.27c-3.37,0-6.48-1.82-8.12-4.77l-15.35-27.47-16.85,27.76c-1.69,2.78-4.7,4.48-7.96,4.48h-21.57c-2.14,0-3.96,1.58-4.25,3.71l-12.3,89.61c-1.2,5.91-3.19,8.06-9.36,7.95-5.83-.45-8.51-3.51-9.08-8.3l-12.53-135.48-4.64,79.39c-.35,6.41-2.11,10.56-8.2,10.94-5.98,0-8.75-2.2-9.75-7.99l-5.48-40.61c-.12-.92-.91-1.61-1.84-1.61h-7.8c-3.6-.23-6.06-2.72-7.74-6.76l-4.36-12.81-2.96,13.65c-1.06,4.86-3.36,8.1-7.46,8.3h-10.72c-1.15,0-2.15.77-2.44,1.88l-3.31,12.62c-2.89,8.55-11.01,9.82-14.5,2.25l-6.39-15.21c-.39-.94-1.31-1.54-2.32-1.54h-61.38c-4.58-.19-6.81-3.08-7.6-7.6-.97-6.18,1.88-9.14,7.6-9.68Z"/>
  <path class="cls-1" d="m287.63,251.52c-.21,1.38-.49,2.75-.94,4.07-2.4,7.05-7.85,10.65-15.67,11.4-8.66.86-14.64-2.75-18.27-10.33-.84-1.76-1.42-3.64-1.84-5.55l-8.18-37.33-13.73,124.36c-2.81,19.64-30.68,19.35-32.51,0l-12.81-251.39c-.1.93-.2,1.84-.31,2.77l-.86,7.64c-.43,3.86-.87,7.72-1.3,11.58-.55,4.85-1.09,9.7-1.64,14.57-.62,5.53-1.25,11.07-1.86,16.6-.67,5.9-1.33,11.81-2,17.71-.67,5.95-1.35,11.91-2.02,17.86-.64,5.69-1.28,11.38-1.92,17.07-.57,5.1-1.15,10.22-1.73,15.33-.47,4.21-.95,8.43-1.42,12.65-.33,3-.67,6.01-1.01,9.01-.87,7.74-2.43,16.57-9.76,20.83-.66.37-1.33.61-2.07.8-6.91,1.94-12.38-3.83-14.87-9.59-1.4-3.24-2.44-6.67-3.63-9.99-1.32-3.7-2.79-7.34-4.05-11.07-1.1-3.27-2.17-6.56-3.23-9.85-1.51-4.71-2.98-9.43-4.43-14.16-.76-2.49-1.52-4.99-2.27-7.51-.39-1.27-.76-2.55-1.15-3.81-.18-.62-.36-1.23-.55-1.84-.09-.32-.67-1.59-.55-1.85l-7.62,15.35c-1.78,3.59-4.15,6.97-7.42,9.28-4.1,2.92-7.09,3.41-13.53,3.73l-8.72.02h-3.13s-20.66.01-20.66.01c-3.59-.19-5.62.92-5.35,3.9v42.79c-.14,5.76,2.95,8.57,9.43,8.3h8.16c1.01,0,1.84.83,1.84,1.84v2.51c0,1.03-.83,1.84-1.84,1.84H2.11c-1.17,0-2.11-.94-2.11-2.11v-1.97c0-1.16.94-2.11,2.11-2.11h11.05c4.38-.35,6.73-3.24,6.55-9.29V107.93c.15-8.41-2.23-11.41-7.83-11.41H2.19c-1.21,0-2.19-.98-2.19-2.19v-1.64c0-1.21.98-2.21,2.19-2.21h70.66c.94,0,1.71.77,1.71,1.71v2.65c0,.94-.77,1.7-1.71,1.7h-7.48c-8.23-.36-11.55,3.93-10.98,11.93v77.17c.14,4.13,3.01,5.8,8.24,5.35h19.14c.54.01,1.07.02,1.58,0,5.94-.1,9.74-1.9,12.49-5.35.97-1.2,1.66-2.6,2.22-4.05,3.19-8.32,7.42-15.25,12.71-20.79,6.59-7.29,16.84-7.07,24.07.85,5.45,6.54,9.56,21.93,14.57,39.26L171.3,13.84c1.03-7.09,4.29-11.72,10.42-13.23,10.22-2.14,17.3,1.2,19.42,13.23l13.52,265.18c.37-3.35.75-6.7,1.11-10.07.9-8.07,1.8-16.14,2.7-24.21,1.08-9.8,2.17-19.6,3.26-29.41.95-8.54,1.9-17.09,2.86-25.65.88-7.97,1.41-16.03,3.44-23.82,1.11-4.27,2.76-8.78,6.09-11.82,3.55-3.25,9.02-4.22,13.21-1.58,4.62,2.91,6.02,8.36,7.31,13.3,1.16,4.39,2.02,8.84,2.76,13.32.78,4.67,2.05,9.26,3.07,13.9,2.32,10.54,4.63,21.08,6.95,31.61.47,2.14.94,4.28,1.41,6.43.14.64.62,1.72.52,2.38l12.25-91.62c1.69-6.05,8.45-6.97,9.92,0,.64,41.09.73,78.91-3.87,109.73Z"/>
  <polygon class="cls-1" points="83.75 209.86 83.75 209.87 80.62 209.87 83.75 209.86"/>
</svg>